<?xml version="1.0" standalone="no"?>
<!DOCTYPE svg PUBLIC "-//W3C//DTD SVG 20010904//EN"
 "http://www.w3.org/TR/2001/REC-SVG-20010904/DTD/svg10.dtd">
<svg version="1.0" xmlns="http://www.w3.org/2000/svg"
 width="512.000000pt" height="512.000000pt" viewBox="0 0 512.000000 512.000000"
 preserveAspectRatio="xMidYMid meet">

<g transform="translate(0.000000,512.000000) scale(0.100000,-0.100000)"
fill="#000000" stroke="none">
<path d="M1855 4686 c-117 -55 -171 -181 -133 -308 15 -51 78 -122 128 -144
22 -10 40 -25 40 -33 0 -9 -19 -129 -42 -267 l-42 -252 -84 -11 c-115 -16
-227 -59 -327 -126 -60 -40 -92 -55 -117 -55 -91 0 -237 -54 -348 -130 -97
-66 -218 -213 -252 -306 -11 -32 -15 -34 -58 -34 -155 0 -271 -107 -271 -249
-1 -132 86 -234 219 -256 27 -4 41 -11 38 -18 -2 -7 -27 -62 -55 -123 -98
-216 -180 -495 -216 -734 -9 -58 -19 -183 -22 -278 -6 -174 -6 -174 -31 -183
-87 -33 -152 -133 -152 -233 0 -58 -2 -63 -35 -89 -19 -15 -47 -49 -62 -75
-39 -65 -40 -164 -2 -237 28 -56 91 -109 147 -125 22 -6 168 -10 360 -10 l323
0 24 25 c31 30 33 75 4 101 -20 18 -45 19 -349 24 l-328 5 -26 24 c-14 13 -28
36 -31 52 -8 37 18 93 51 108 16 7 100 11 238 11 201 0 215 1 240 21 33 26 36
79 6 109 -19 19 -33 20 -215 20 l-195 0 0 35 c0 24 9 45 29 67 l29 33 164 3
c150 3 165 5 186 24 32 30 30 80 -4 107 -23 18 -41 21 -127 21 l-100 0 6 158
c14 346 102 696 253 1011 l67 141 703 0 c501 0 710 3 728 11 36 17 54 65 35
98 -29 52 -5 51 -881 51 l-816 0 -26 31 c-52 61 -22 147 55 163 18 3 574 6
1238 5 907 0 1215 -3 1241 -12 49 -17 76 -72 60 -121 -21 -63 -27 -64 -338
-68 -274 -3 -282 -4 -303 -25 -31 -30 -28 -81 6 -110 25 -22 34 -23 191 -23
l165 0 59 -122 c163 -345 244 -667 266 -1066 l6 -122 -106 0 c-100 0 -108 -2
-131 -25 -32 -31 -32 -69 0 -100 23 -24 29 -25 168 -25 79 0 158 -5 175 -11
37 -13 62 -48 62 -87 l0 -29 -192 -7 c-190 -6 -193 -7 -215 -32 -34 -38 -29
-84 11 -107 14 -8 96 -14 247 -17 204 -4 229 -7 248 -24 27 -25 37 -78 21
-117 -26 -62 39 -59 -1185 -59 l-1116 0 -24 -25 c-32 -31 -32 -69 0 -100 l24
-25 1873 0 c1259 0 1885 4 1910 10 56 16 119 69 147 125 38 72 37 172 -1 237
-16 25 -43 59 -62 75 -31 26 -34 33 -38 100 -4 54 -12 83 -32 118 -30 51 -91
100 -137 110 l-29 7 0 144 c0 130 -2 146 -20 164 -31 31 -68 36 -98 13 -27
-20 -27 -21 -30 -167 l-3 -146 -94 0 c-82 0 -98 -3 -115 -20 -24 -24 -27 -77
-6 -105 15 -21 104 -32 269 -34 43 -1 87 -6 98 -11 22 -12 49 -61 49 -90 0
-19 -5 -20 -179 -20 -99 0 -191 -4 -206 -10 -29 -11 -55 -62 -47 -92 2 -10 16
-27 30 -38 22 -18 40 -20 177 -20 l152 0 11 -25 c7 -14 12 -59 12 -100 l0 -75
-475 0 -475 0 0 85 c0 46 -5 107 -11 135 l-11 50 -124 0 c-121 0 -126 1 -160
27 -31 25 -34 33 -34 79 0 102 -48 186 -131 232 l-49 27 0 113 0 112 368 0
c219 0 382 4 404 10 20 6 48 24 62 41 l26 31 0 228 0 228 -26 31 c-14 17 -42
35 -62 41 -23 6 -203 10 -462 10 l-425 0 -34 99 c-18 55 -58 155 -88 223 -30
67 -57 129 -60 136 -4 9 80 12 403 12 388 0 411 1 441 20 60 36 63 51 63 343
0 252 -1 266 -21 291 -22 28 -64 35 -99 16 -33 -18 -40 -66 -40 -296 l0 -224
-255 0 -255 0 7 28 c15 52 8 145 -14 187 -46 86 -123 136 -225 143 l-67 5 -31
64 c-40 81 -133 198 -194 242 l-46 35 0 203 0 203 539 0 539 0 4 -166 3 -166
28 -24 c44 -37 88 -31 112 17 12 21 15 69 15 204 0 198 -8 232 -62 265 -32 19
-49 20 -631 20 -534 0 -603 -2 -633 -16 -59 -28 -64 -50 -64 -265 0 -178 -1
-191 -17 -184 -36 15 -117 34 -171 41 -41 5 -67 16 -100 41 -58 44 -141 86
-217 109 -33 10 -63 20 -67 24 -6 5 57 416 77 508 l5 22 1183 0 1182 0 78
-467 c125 -751 128 -780 136 -1446 l6 -519 28 -24 c34 -29 71 -25 105 13 22
24 22 27 22 306 -1 495 -21 894 -61 1177 -5 41 -44 276 -85 522 -41 245 -74
449 -74 452 0 3 6 6 13 6 32 0 107 61 136 111 62 109 47 217 -42 304 -32 31
-68 55 -93 63 -32 9 -346 12 -1360 12 l-1319 0 -50 -24z m2335 -226 l0 -100
-1130 0 -1130 0 -32 29 c-27 24 -33 36 -33 69 0 42 23 77 60 93 11 4 525 8
1143 8 l1122 1 0 -100z m-2220 -956 c74 -21 144 -58 212 -111 54 -41 64 -45
141 -53 144 -15 248 -62 349 -158 51 -48 118 -137 118 -155 0 -4 -441 -7 -981
-7 l-980 0 23 42 c41 75 145 170 236 216 81 40 134 55 245 67 44 5 66 14 91
36 147 129 357 176 546 123z m2060 -1774 l0 -150 -365 0 -365 0 -4 23 c-2 12
-15 79 -28 150 l-23 127 392 0 393 0 0 -150z"/>
<path d="M1783 3430 c-26 -11 -43 -39 -43 -73 0 -66 83 -94 127 -43 29 34 29
58 1 90 -27 29 -55 38 -85 26z"/>
<path d="M1472 3267 c-45 -48 -11 -127 55 -127 32 0 73 42 73 75 0 35 -42 75
-78 75 -17 0 -37 -9 -50 -23z"/>
<path d="M2050 3270 c-28 -28 -26 -81 3 -108 39 -37 88 -28 113 20 38 73 -58
146 -116 88z"/>
<path d="M904 1996 l-34 -34 0 -232 0 -232 34 -34 34 -34 874 0 c960 0 900 -4
933 60 12 23 15 72 15 240 0 168 -3 217 -15 240 -33 64 27 60 -933 60 l-874 0
-34 -34z m1706 -266 l0 -150 -795 0 -795 0 0 150 0 150 795 0 795 0 0 -150z"/>
</g>
</svg>
